<?xml version="1.0" encoding="UTF-8"?>
<svg version="1.1" xmlns="http://www.w3.org/2000/svg" width="500" height="500">
<path d="M0 0 C0.94069336 0.37777588 0.94069336 0.37777588 1.90039062 0.76318359 C24.70683406 9.98858637 45.3899921 22.93849636 64 39 C64.76828125 39.65742187 65.5365625 40.31484375 66.328125 40.9921875 C79.10783713 52.20617331 91.03345801 64.20591753 101 78 C101.45713379 78.62874023 101.91426758 79.25748047 102.38525391 79.90527344 C109.33798062 89.54171908 115.43172887 99.50834123 121 110 C121.3412793 110.63341309 121.68255859 111.26682617 122.03417969 111.91943359 C134.70999879 135.57894093 142.760394 161.37465718 146 188 C146.1544458 189.23435791 146.1544458 189.23435791 146.31201172 190.49365234 C150.0877904 221.63637031 147.91022154 252.64100743 140 283 C134.46827524 281.20349299 129.03733999 279.25993155 123.625 277.125 C93.53661885 265.68031772 58.76350938 261.88491294 27 268 C25.98752197 268.1853833 25.98752197 268.1853833 24.95458984 268.37451172 C-2.4096512 273.47401451 -27.75992218 284.20753573 -50 301 C-50.94488281 301.70253906 -51.88976562 302.40507812 -52.86328125 303.12890625 C-65.61275949 313.08294334 -76.76551301 324.80567847 -85.9609375 338.0859375 C-88 341 -88 341 -90 343 C-90.52207031 342.20078125 -91.04414063 341.4015625 -91.58203125 340.578125 C-98.39788484 330.33863988 -106.26361499 321.6668278 -115 313 C-115.7115625 312.27941406 -116.423125 311.55882812 -117.15625 310.81640625 C-130.09402492 298.37457937 -145.72449226 288.74039159 -162.21142578 281.765625 C-163.77009908 281.09841241 -165.3072786 280.38142526 -166.83984375 279.65625 C-177.67999479 274.68983719 -189.4780733 271.91470522 -201 269 C-201.77021484 268.80067871 -202.54042969 268.60135742 -203.33398438 268.39599609 C-214.2849876 265.68424482 -225.40806006 265.72382981 -236.625 265.6875 C-237.36417664 265.68364288 -238.10335327 265.67978577 -238.8649292 265.67581177 C-264.17226721 265.61083831 -292.80195014 269.26842593 -315.078125 282.20703125 C-317.47647669 283.19659506 -318.56647801 282.71141013 -321 282 C-323.28052656 272.03653445 -325.48821806 262.11400108 -327 252 C-327.16894775 250.91549561 -327.33789551 249.83099121 -327.51196289 248.71362305 C-328.86521442 239.46187869 -329.36377086 230.35076252 -329.3125 221 C-329.30926727 219.92634186 -329.30926727 219.92634186 -329.30596924 218.83099365 C-329.01187498 157.48429046 -304.31555257 99.08785981 -262 55 C-261.19755859 54.15671143 -261.19755859 54.15671143 -260.37890625 53.29638672 C-252.1530424 44.69295002 -243.56214241 37.07906559 -234 30 C-233.44908691 29.58298828 -232.89817383 29.16597656 -232.33056641 28.73632812 C-201.10802927 5.11443812 -162.06906315 -11.87416628 -122.94921875 -15.67578125 C-119.9452317 -15.90121929 -119.9452317 -15.90121929 -117 -17 C-77.64397148 -22.51529119 -36.45329709 -14.88125103 0 0 Z " fill="#261701" transform="translate(340,36)"/>
<path d="M0 0 C1.22960701 -0.00648811 1.22960701 -0.00648811 2.48405457 -0.0131073 C5.12094 -0.02315896 7.75763063 -0.02330056 10.39453125 -0.01953125 C11.29641174 -0.01826233 12.19829224 -0.01699341 13.12750244 -0.01568604 C74.93846298 0.15066834 134.64529852 21.63518958 181.24609375 62.6015625 C183.51404256 64.5673176 185.77363311 66.41710911 188.20703125 68.16796875 C188.81546875 67.5853125 189.42390625 67.00265625 190.05078125 66.40234375 C202.90926713 54.37587754 217.22104245 44.36343377 232.20703125 35.16796875 C232.84543945 34.77512695 233.48384766 34.38228516 234.14160156 33.97753906 C259.93090286 18.31164035 288.75040945 8.98304488 318.20703125 3.16796875 C319.57722412 2.89678223 319.57722412 2.89678223 320.97509766 2.62011719 C337.73639835 -0.51464178 354.71901934 -0.18654167 371.703125 -0.03515625 C372.4418988 -0.03075531 373.18067261 -0.02635437 373.9418335 -0.02182007 C378.76672137 0.04273084 383.42791636 0.4965312 388.20703125 1.16796875 C383.66828836 13.89972446 372.75606017 24.93136211 364.20703125 35.16796875 C363.51222656 36.0084375 362.81742187 36.84890625 362.1015625 37.71484375 C358.75333783 41.66835389 355.16320858 45.06838525 351.20703125 48.41015625 C349.26714578 50.11513371 347.53467223 51.90962637 345.76953125 53.79296875 C339.26718558 60.37181261 331.65377945 65.72066818 324.20703125 71.16796875 C323.61067871 71.60898926 323.01432617 72.05000977 322.39990234 72.50439453 C275.23607653 107.01083578 211.03760248 122.10776459 153.26953125 113.54296875 C126.57752662 109.2120948 101.05058718 102.0744879 77.20703125 89.16796875 C76.49095703 88.78914551 75.77488281 88.41032227 75.03710938 88.02001953 C63.89934094 82.12511651 53.33495983 75.6730561 43.20703125 68.16796875 C42.57651855 67.70116699 41.94600586 67.23436523 41.29638672 66.75341797 C23.8812866 53.65751255 7.93611724 37.8650057 -4.79296875 20.16796875 C-5.72698614 18.90429816 -6.6619109 17.64129782 -7.59765625 16.37890625 C-8.51862659 15.12233759 -9.4379495 13.86455952 -10.35546875 12.60546875 C-10.77401123 12.03320557 -11.19255371 11.46094238 -11.6237793 10.87133789 C-13.84673517 7.75457333 -15.544839 4.79091836 -16.79296875 1.16796875 C-11.15526162 0.36816667 -5.69026952 0.00907765 0 0 Z " fill="#261801" transform="translate(63.79296875,379.83203125)"/>
<path d="M0 0 C0.83498016 0.0012085 1.66996033 0.00241699 2.53024292 0.00366211 C17.2522318 0.0611966 31.4097459 1.13872248 45.8125 4.375 C46.96476074 4.6328125 48.11702148 4.890625 49.30419922 5.15625 C88.74268412 14.32478248 121.26447122 34.26260049 150.8125 61.375 C154.1324049 59.94590187 156.07237144 58.21664157 158.5 55.5625 C186.92485934 26.67544782 226.59024773 9.87492591 265.8125 2.375 C266.7494873 2.18736084 267.68647461 1.99972168 268.65185547 1.80639648 C277.85274878 0.15640389 286.94926202 0.03628035 296.26660156 0.05932617 C298.91253544 0.06247033 301.55732962 0.03899873 304.203125 0.01367188 C320.81888638 -0.05029064 336.44822628 2.33777115 352.4375 6.875 C353.51644531 7.17019531 354.59539062 7.46539062 355.70703125 7.76953125 C358.75069117 8.61107912 361.78178171 9.48816171 364.8125 10.375 C365.71581055 10.62121094 366.61912109 10.86742187 367.54980469 11.12109375 C368.77425293 11.47880859 368.77425293 11.47880859 370.0234375 11.84375 C370.7354834 12.04419922 371.4475293 12.24464844 372.18115234 12.45117188 C373.8125 13.375 373.8125 13.375 374.60058594 15.29272461 C374.91689713 18.40081004 373.85497909 20.56074764 372.6875 23.4375 C372.22730469 24.57703125 371.76710938 25.7165625 371.29296875 26.890625 C369.22298678 31.76245592 367.0558365 36.58096111 364.8125 41.375 C363.75458252 41.30571289 362.69666504 41.23642578 361.60668945 41.16503906 C349.73505895 40.42482805 337.89374882 40.13291923 326 40.125 C324.6161058 40.12398788 324.6161058 40.12398788 323.20425415 40.12295532 C309.8442919 40.13843482 296.91096767 40.52225763 283.8125 43.375 C282.98733887 43.54128906 282.16217773 43.70757812 281.31201172 43.87890625 C242.07176266 51.84646951 205.89845458 69.73907835 176.8125 97.375 C176.26948242 97.88546875 175.72646484 98.3959375 175.16699219 98.921875 C166.86443427 106.77056587 159.89992679 114.68020919 153.8125 124.375 C149.8935797 123.06869323 149.06655513 121.28437863 146.6875 117.9375 C142.42068493 112.06293775 137.8002485 106.65831878 132.8125 101.375 C132.24015625 100.76140625 131.6678125 100.1478125 131.078125 99.515625 C126.06673676 94.31332674 120.49365329 89.82204508 114.8125 85.375 C114.26062012 84.9413916 113.70874023 84.5077832 113.14013672 84.06103516 C100.67795843 74.35111091 87.24194354 66.84461061 73 60.0625 C72.36787598 59.76126221 71.73575195 59.46002441 71.08447266 59.1496582 C60.41150918 54.20474506 49.52862585 50.5335442 38.125 47.6875 C36.97966797 47.39294922 35.83433594 47.09839844 34.65429688 46.79492188 C16.11956264 42.07910899 -1.74870871 40.02653932 -20.8527832 40.11425781 C-23.61887587 40.12497627 -26.38431746 40.11429246 -29.15039062 40.1015625 C-40.62643962 40.09391562 -51.81514453 40.84157021 -63.1875 42.375 C-74.1875 20.83549002 -74.1875 20.83549002 -74.1875 14.375 C-64.77683032 10.81773623 -55.43163969 7.98601299 -45.625 5.6875 C-44.41392578 5.39294922 -43.20285156 5.09839844 -41.95507812 4.79492188 C-27.84027059 1.43065334 -14.45987069 -0.0388363 0 0 Z " fill="#271802" transform="translate(99.1875,319.625)"/>
<path d="M0 0 C0.66 0 1.32 0 2 0 C14.01745954 30.68375409 20.23465525 61.96893786 20.1875 95 C20.18722809 95.72166351 20.18695618 96.44332703 20.18667603 97.18685913 C20.16591974 109.2243418 19.57567673 121.06084451 18 133 C17.89816406 133.83241211 17.79632813 134.66482422 17.69140625 135.52246094 C16.18723168 147.70906043 13.68616544 159.29261105 10 171 C9.70432129 171.94456055 9.40864258 172.88912109 9.10400391 173.86230469 C2.31171527 195.35566385 -6.12488811 215.76077651 -18 235 C-24.4963582 232.83454727 -28.04334368 221.92582138 -31.08984375 215.921875 C-35.71438228 206.56581482 -39.30806039 197.03613952 -42.36376953 187.06347656 C-42.9384536 185.19961249 -43.54361112 183.34521088 -44.15234375 181.4921875 C-49.34164227 164.92559675 -50.28076495 148.35820546 -50.3125 131.125 C-50.31608521 130.34003143 -50.31967041 129.55506287 -50.32336426 128.74630737 C-50.43071248 85.03102794 -34.83865572 44.21085379 -8 10 C-6.87658203 8.53433594 -6.87658203 8.53433594 -5.73046875 7.0390625 C-1.64454275 1.78257392 -1.64454275 1.78257392 0 0 Z " fill="#fdfdfb" transform="translate(286,68)"/>
<path d="M0 0 C26.78483871 3.84338662 54.42282136 25.49475077 71 46 C71.75796875 46.90878906 72.5159375 47.81757813 73.296875 48.75390625 C83.8076094 61.64263486 91.54311453 76.31553877 97 92 C97.33789551 92.96292969 97.33789551 92.96292969 97.68261719 93.9453125 C103.81458669 111.79013104 105.62607829 130.21765128 105 149 C94.21436906 144.9480479 84.98969914 138.06161354 76 131 C75.14148438 130.34773437 74.28296875 129.69546875 73.3984375 129.0234375 C34.53425618 98.61309622 8.40888201 52.45547712 0 4 C0 2.68 0 1.36 0 0 Z " fill="#fcfcfa" transform="translate(140,163)"/>
<path d="M0 0 C-0.61345338 4.89804186 -2.7049511 8.77161071 -5 13.0625 C-5.40299316 13.81619873 -5.80598633 14.56989746 -6.22119141 15.34643555 C-12.54922959 26.91091918 -20.96627722 36.49374403 -30 46 C-30.85464844 46.95132813 -30.85464844 46.95132813 -31.7265625 47.921875 C-46.40625256 63.73077198 -67.52990377 74.2509517 -88 80 C-87.59087581 71.95389095 -85.18413518 65.36331261 -82 58 C-81.566875 56.99582031 -81.13375 55.99164063 -80.6875 54.95703125 C-69.65159556 31.2235663 -48.09175008 13.24500003 -23.77587891 4.16992188 C-15.92911125 1.45980692 -8.38085635 -0.76189603 0 0 Z " fill="#fbfbf8" transform="translate(369,235)"/>
<path d="M0 0 C3.63559661 3.43361902 6.36113346 6.7973607 9 11 C10.65 10.67 12.3 10.34 14 10 C14 13 14 13 12.5 14.6875 C12.005 15.120625 11.51 15.55375 11 16 C7.28954753 14.42219077 4.70093616 12.09296752 1.75 9.375 C0.85796875 8.55773437 -0.0340625 7.74046875 -0.953125 6.8984375 C-1.96632812 5.95871094 -1.96632812 5.95871094 -3 5 C-2.01 3.35 -1.02 1.7 0 0 Z " fill="#eae9e5" transform="translate(241,366)"/>
<path d="M0 0 C0.33 0.66 0.66 1.32 1 2 C-3.6843739 8.00185406 -8.96948907 13.80573668 -16 17 C-12.19985226 12.445213 -8.34334454 8.04720741 -4 4 C-3.34 4 -2.68 4 -2 4 C-1.34 2.68 -0.68 1.36 0 0 Z " fill="#d4d1cc" transform="translate(423,419)"/>
<path d="M0 0 C-1.32 1.65 -2.64 3.3 -4 5 C-5.32 4.34 -6.64 3.68 -8 3 C-8 2.01 -8 1.02 -8 0 C-4.94736336 -0.98120464 -3.05263664 -0.98120464 0 0 Z " fill="#dddbd7" transform="translate(256,377)"/>
<path d="M0 0 C0.99 0.33 1.98 0.66 3 1 C3.33 1.99 3.66 2.98 4 4 C3.01 4.66 2.02 5.32 1 6 C0.01 4.68 -0.98 3.36 -2 2 C-1.34 1.34 -0.68 0.68 0 0 Z " fill="#e7e5e1" transform="translate(250,443)"/>
</svg>
